<svg width="32" height="32" viewBox="0 0 32 32" fill="none" xmlns="http://www.w3.org/2000/svg">
<path d="M0 10.6667C0 6.93298 0 5.06614 0.726623 3.64006C1.36578 2.38565 2.38565 1.36578 3.64006 0.726623C5.06614 0 6.93298 0 10.6667 0H21.3333C25.067 0 26.9339 0 28.3599 0.726623C29.6144 1.36578 30.6342 2.38565 31.2734 3.64006C32 5.06614 32 6.93298 32 10.6667V21.3333C32 25.067 32 26.9339 31.2734 28.3599C30.6342 29.6144 29.6144 30.6342 28.3599 31.2734C26.9339 32 25.067 32 21.3333 32H10.6667C6.93298 32 5.06614 32 3.64006 31.2734C2.38565 30.6342 1.36578 29.6144 0.726623 28.3599C0 26.9339 0 25.067 0 21.3333V10.6667Z" fill="#F2F2F2"/>
<path d="M9.32595 15.9998C9.32595 19.6495 12.3103 22.6056 15.998 22.6056C16.985 22.6056 17.9215 22.3848 18.7647 22.0051V25.1046C17.8904 25.3641 16.9616 25.5075 15.998 25.5075C10.6977 25.5075 6.3999 21.2535 6.3999 15.9998C6.3999 10.7462 10.6977 6.49219 16.0018 6.49219C16.9655 6.49219 17.8904 6.63554 18.7686 6.89512V9.9946C17.9253 9.61104 16.9889 9.39408 16.0018 9.39408C12.3181 9.39408 9.32984 12.3502 9.32984 15.9998H9.32595ZM15.998 20.0253C13.7519 20.0253 11.9295 18.2237 11.9295 15.996C11.9295 13.7682 13.7519 11.9666 15.998 11.9666C18.244 11.9666 20.0664 13.7721 20.0664 15.996C20.0664 18.2198 18.244 20.0253 15.998 20.0253ZM24.6984 20.0253H21.2788C22.1454 18.9095 22.67 17.5186 22.67 15.9998C22.67 14.4811 22.1454 13.0863 21.2749 11.9705H24.6945C25.2735 13.1948 25.5999 14.5586 25.5999 15.9998C25.5999 17.4411 25.2735 18.8049 24.6945 20.0253" fill="#1B2735"/>
</svg>
