<svg width="20" height="20" viewBox="0 0 20 20" fill="none" xmlns="http://www.w3.org/2000/svg">
<path d="M10 13.3333C10.4602 13.3333 10.8333 13.7064 10.8333 14.1667C10.8333 14.6269 10.4602 15 10 15C9.53976 15 9.16667 14.6269 9.16667 14.1667C9.16667 13.7064 9.53976 13.3333 10 13.3333Z" fill="#D62E4C"/>
<path d="M10 5C10.4602 5 10.8333 5.3731 10.8333 5.83333V10.8333C10.8333 11.2936 10.4602 11.6667 10 11.6667C9.53976 11.6667 9.16667 11.2936 9.16667 10.8333V5.83333C9.16667 5.3731 9.53976 5 10 5Z" fill="#D62E4C"/>
<path fill-rule="evenodd" clip-rule="evenodd" d="M10 0C15.5228 0 20 4.47715 20 10C20 15.5228 15.5228 20 10 20C4.47715 20 0 15.5228 0 10C0 4.47715 4.47715 0 10 0ZM10 1.66667C5.39763 1.66667 1.66667 5.39763 1.66667 10C1.66667 14.6024 5.39763 18.3333 10 18.3333C14.6024 18.3333 18.3333 14.6024 18.3333 10C18.3333 5.39763 14.6024 1.66667 10 1.66667Z" fill="#D62E4C"/>
</svg>
