<svg width="20" height="20" viewBox="0 0 20 20" fill="none" xmlns="http://www.w3.org/2000/svg">
<path d="M10 0C15.5228 0 20 4.47715 20 10C20 15.5228 15.5228 20 10 20C4.47715 20 0 15.5228 0 10C0 4.47715 4.47715 0 10 0ZM14.6904 6.97656C14.4011 6.68752 13.9318 6.68736 13.6426 6.97656L8.33301 12.2861L6.35645 10.3096C6.06719 10.0207 5.59873 10.0206 5.30957 10.3096C5.0206 10.5988 5.0206 11.0682 5.30957 11.3574L7.80957 13.8574C8.09869 14.1462 8.56723 14.146 8.85645 13.8574L14.6904 8.02344C14.9793 7.73424 14.9793 7.26576 14.6904 6.97656Z" fill="#24D4AB"/>
</svg>
