<svg width="10" height="16" viewBox="0 0 10 16" fill="none" xmlns="http://www.w3.org/2000/svg">
<path d="M8.19524 10.8618C8.45559 10.6015 8.8776 10.6015 9.13795 10.8618C9.39819 11.1222 9.39826 11.5442 9.13795 11.8045L5.13795 15.8045L5.08716 15.8501C4.82535 16.0636 4.4393 16.0485 4.19524 15.8045L0.195238 11.8045L0.149665 11.7537C-0.0638845 11.4919 -0.0487817 11.1059 0.195238 10.8618C0.439315 10.6177 0.825316 10.6027 1.08716 10.8162L1.13795 10.8618L4.66659 14.3905L8.19524 10.8618Z" fill="black" fill-opacity="0.4"/>
<path d="M4.24602 0.149583C4.50787 -0.0639836 4.89387 -0.0489211 5.13795 0.195156L9.13795 4.19516L9.18352 4.24594C9.39698 4.50778 9.38198 4.89383 9.13795 5.13786C8.8939 5.38186 8.50785 5.39689 8.24602 5.18344L8.19524 5.13786L4.66659 1.60922L1.13795 5.13786C0.877629 5.39813 0.45558 5.39809 0.195238 5.13786C-0.0650955 4.87753 -0.0650629 4.45551 0.195238 4.19516L4.19524 0.195156L4.24602 0.149583Z" fill="black" fill-opacity="0.4"/>
</svg>
