<svg width="32" height="32" viewBox="0 0 32 32" fill="none" xmlns="http://www.w3.org/2000/svg">
<path d="M0 6.66667C0 2.98477 2.98477 0 6.66667 0H25.3333C29.0152 0 32 2.98477 32 6.66667V25.3333C32 29.0152 29.0152 32 25.3333 32H6.66667C2.98477 32 0 29.0152 0 25.3333V6.66667Z" fill="#2667FF"/>
<mask id="path-2-inside-1_2418_307" fill="white">
<path d="M11.7114 16.0996C11.7114 18.3694 13.5674 20.2078 15.8609 20.2078C16.4747 20.2078 17.0571 20.0705 17.5816 19.8344V21.762C17.0378 21.9234 16.4602 22.0126 15.8609 22.0126C12.5645 22.0126 9.8916 19.3669 9.8916 16.0996C9.8916 12.8322 12.5645 10.1865 15.8633 10.1865C16.4626 10.1865 17.0378 10.2757 17.584 10.4371V12.3648C17.0595 12.1262 16.4771 11.9913 15.8633 11.9913C13.5722 11.9913 11.7138 13.8298 11.7138 16.0996H11.7114ZM15.8609 18.6031C14.464 18.6031 13.3306 17.4826 13.3306 16.0971C13.3306 14.7117 14.464 13.5912 15.8609 13.5912C17.2577 13.5912 18.3911 14.7141 18.3911 16.0971C18.3911 17.4802 17.2577 18.6031 15.8609 18.6031ZM21.2719 18.6031H19.1452C19.6841 17.9091 20.0103 17.0441 20.0103 16.0996C20.0103 15.155 19.6841 14.2876 19.1427 13.5936H21.2694C21.6295 14.355 21.8325 15.2032 21.8325 16.0996C21.8325 16.9959 21.6295 17.8441 21.2694 18.6031"/>
</mask>
<path d="M11.7114 16.0996C11.7114 18.3694 13.5674 20.2078 15.8609 20.2078C16.4747 20.2078 17.0571 20.0705 17.5816 19.8344V21.762C17.0378 21.9234 16.4602 22.0126 15.8609 22.0126C12.5645 22.0126 9.8916 19.3669 9.8916 16.0996C9.8916 12.8322 12.5645 10.1865 15.8633 10.1865C16.4626 10.1865 17.0378 10.2757 17.584 10.4371V12.3648C17.0595 12.1262 16.4771 11.9913 15.8633 11.9913C13.5722 11.9913 11.7138 13.8298 11.7138 16.0996H11.7114ZM15.8609 18.6031C14.464 18.6031 13.3306 17.4826 13.3306 16.0971C13.3306 14.7117 14.464 13.5912 15.8609 13.5912C17.2577 13.5912 18.3911 14.7141 18.3911 16.0971C18.3911 17.4802 17.2577 18.6031 15.8609 18.6031ZM21.2719 18.6031H19.1452C19.6841 17.9091 20.0103 17.0441 20.0103 16.0996C20.0103 15.155 19.6841 14.2876 19.1427 13.5936H21.2694C21.6295 14.355 21.8325 15.2032 21.8325 16.0996C21.8325 16.9959 21.6295 17.8441 21.2694 18.6031" fill="white"/>
<path d="M11.7114 16.0996V16.0204H11.6323V16.0996H11.7114ZM17.5816 19.8344H17.6607V19.7119L17.5491 19.7622L17.5816 19.8344ZM17.5816 21.762L17.6041 21.8379L17.6607 21.821V21.762H17.5816ZM17.584 10.4371H17.6631V10.378L17.6064 10.3612L17.584 10.4371ZM17.584 12.3648L17.5512 12.4368L17.6631 12.4877V12.3648H17.584ZM11.7138 16.0996V16.1787H11.7929V16.0996H11.7138ZM19.1452 18.6031L19.0827 18.5545L18.9835 18.6822H19.1452V18.6031ZM19.1427 13.5936V13.5145H18.9807L19.0804 13.6423L19.1427 13.5936ZM21.2694 13.5936L21.341 13.5598L21.3196 13.5145H21.2694V13.5936ZM11.7114 16.0996H11.6323C11.6323 18.4138 13.5244 20.287 15.8609 20.287V20.2078V20.1287C13.6104 20.1287 11.7905 18.3249 11.7905 16.0996H11.7114ZM15.8609 20.2078V20.287C16.4866 20.287 17.0801 20.1469 17.614 19.9065L17.5816 19.8344L17.5491 19.7622C17.0342 19.994 16.4628 20.1287 15.8609 20.1287V20.2078ZM17.5816 19.8344H17.5024V21.762H17.5816H17.6607V19.8344H17.5816ZM17.5816 21.762L17.559 21.6861C17.0223 21.8455 16.4523 21.9335 15.8609 21.9335V22.0126V22.0917C16.4681 22.0917 17.0533 22.0014 17.6041 21.8379L17.5816 21.762ZM15.8609 22.0126V21.9335C12.6075 21.9335 9.97073 19.3225 9.97073 16.0996H9.8916H9.81247C9.81247 19.4113 12.5215 22.0917 15.8609 22.0917V22.0126ZM9.8916 16.0996H9.97073C9.97073 12.8767 12.6074 10.2657 15.8633 10.2657V10.1865V10.1074C12.5215 10.1074 9.81247 12.7878 9.81247 16.0996H9.8916ZM15.8633 10.1865V10.2657C16.4547 10.2657 17.0223 10.3536 17.5615 10.513L17.584 10.4371L17.6064 10.3612C17.0533 10.1977 16.4706 10.1074 15.8633 10.1074V10.1865ZM17.584 10.4371H17.5048V12.3648H17.584H17.6631V10.4371H17.584ZM17.584 12.3648L17.6167 12.2927C17.0824 12.0497 16.4888 11.9121 15.8633 11.9121V11.9913V12.0704C16.4654 12.0704 17.0367 12.2027 17.5512 12.4368L17.584 12.3648ZM15.8633 11.9913V11.9121C13.5293 11.9121 11.6347 13.7853 11.6347 16.0996H11.7138H11.7929C11.7929 13.8742 13.6152 12.0704 15.8633 12.0704V11.9913ZM11.7138 16.0996V16.0204H11.7114V16.0996V16.1787H11.7138V16.0996ZM15.8609 18.6031V18.524C14.5069 18.524 13.4097 17.4382 13.4097 16.0971H13.3306H13.2514C13.2514 17.5271 14.4211 18.6822 15.8609 18.6822V18.6031ZM13.3306 16.0971H13.4097C13.4097 14.7561 14.5069 13.6703 15.8609 13.6703V13.5912V13.5121C14.4211 13.5121 13.2514 14.6672 13.2514 16.0971H13.3306ZM15.8609 13.5912V13.6703C17.2147 13.6703 18.312 14.7585 18.312 16.0971H18.3911H18.4703C18.4703 14.6697 17.3007 13.5121 15.8609 13.5121V13.5912ZM18.3911 16.0971H18.312C18.312 17.4358 17.2147 18.524 15.8609 18.524V18.6031V18.6822C17.3007 18.6822 18.4703 17.5246 18.4703 16.0971H18.3911ZM21.2719 18.6031V18.524H19.1452V18.6031V18.6822H21.2719V18.6031ZM19.1452 18.6031L19.2077 18.6516C19.7567 17.9447 20.0895 17.0628 20.0895 16.0996H20.0103H19.9312C19.9312 17.0254 19.6115 17.8736 19.0827 18.5545L19.1452 18.6031ZM20.0103 16.0996H20.0895C20.0895 15.1364 19.7567 14.252 19.2051 13.545L19.1427 13.5936L19.0804 13.6423C19.6115 14.3231 19.9312 15.1736 19.9312 16.0996H20.0103ZM19.1427 13.5936V13.6728H21.2694V13.5936V13.5145H19.1427V13.5936ZM21.2694 13.5936L21.1979 13.6275C21.5532 14.3787 21.7534 15.2153 21.7534 16.0996H21.8325H21.9117C21.9117 15.1911 21.7059 14.3314 21.341 13.5598L21.2694 13.5936ZM21.8325 16.0996H21.7534C21.7534 16.9838 21.5532 17.8204 21.198 18.5692L21.2694 18.6031L21.3409 18.637C21.7059 17.8677 21.9117 17.008 21.9117 16.0996H21.8325Z" fill="white" mask="url(#path-2-inside-1_2418_307)"/>
<rect x="3.44023" y="3.44023" width="25.1192" height="25.1192" rx="2.88517" stroke="white" stroke-width="0.92733" stroke-dasharray="5.76 9.27"/>
</svg>
