<svg width="124" height="12" viewBox="0 0 124 12" fill="none" xmlns="http://www.w3.org/2000/svg">
<path d="M0 5.98359V5.96159C0 3.70242 1.70922 1.84912 4.15901 1.84912C5.65243 1.84912 6.57447 2.3479 7.30279 3.0765L6.18702 4.36012C5.55924 3.80267 4.95599 3.46281 4.14675 3.46281C2.80292 3.46281 1.83428 4.57528 1.83428 5.93959V5.96159C1.83428 7.32589 2.78085 8.46037 4.14675 8.46037C5.05898 8.46037 5.61564 8.10829 6.24342 7.52883L7.35919 8.65352C6.53769 9.52883 5.63772 10.0741 4.09035 10.0741C1.74355 10.0741 0 8.26721 0 5.98359Z" fill="#1B2735"/>
<path d="M20.4175 1.98584H22.0335L25.7707 6.8807V1.98584H27.502V9.93694H26.0111L22.1488 4.88315V9.93694H20.4175V1.98584Z" fill="#1B2735"/>
<path d="M30.1626 5.98359V5.96159C30.1626 3.69998 31.8718 1.84912 34.3216 1.84912C35.815 1.84912 36.7371 2.3479 37.4654 3.0765L36.3496 4.36012C35.7218 3.80267 35.1186 3.46281 34.3093 3.46281C32.9655 3.46281 31.9969 4.57528 31.9969 5.93959V5.96159C31.9969 7.32589 32.9434 8.46037 34.3093 8.46037C35.2216 8.46037 35.7782 8.10829 36.406 7.52883L37.5218 8.65352C36.7003 9.52883 35.8003 10.0741 34.2529 10.0741C31.9061 10.0741 30.1626 8.26721 30.1626 5.98604" fill="#1B2735"/>
<path d="M57.9961 5.84892C58.8617 5.84892 59.3399 5.40638 59.3399 4.72423V4.70222C59.3399 3.94183 58.8274 3.5653 57.9618 3.5653H56.2182V5.84892H57.9961ZM54.4624 1.98584H58.1089C59.1217 1.98584 59.8966 2.25723 60.4336 2.79269C60.8897 3.24745 61.1178 3.84892 61.1178 4.60931V4.63132C61.1178 5.91494 60.4238 6.72178 59.4086 7.09586L61.3557 9.93449H59.3056L57.5964 7.38926H56.2182V9.93449H54.4649V1.98584H54.4624Z" fill="#1B2735"/>
<path d="M65.5541 3.5653V8.35748H66.9102C68.335 8.35748 69.3134 7.39171 69.3134 5.98339V5.96139C69.3134 4.55308 68.3325 3.5653 66.9102 3.5653H65.5541ZM63.8008 1.98584H66.9102C69.4164 1.98584 71.1477 3.70222 71.1477 5.93938V5.96139C71.1477 8.19855 69.4164 9.93694 66.9102 9.93694H63.8008V1.98584Z" fill="#1B2735"/>
<path d="M75.642 1.98584H73.8887V9.93694H75.642V1.98584Z" fill="#1B2735"/>
<path d="M78.6118 6.52863V1.98584H80.3652V6.48462C80.3652 7.79024 81.0028 8.45039 82.0866 8.45039C83.1705 8.45039 83.8081 7.81469 83.8081 6.5433V1.98584H85.5615V6.47239C85.5615 8.8807 84.2054 10.0616 82.0646 10.0616C79.9238 10.0616 78.6118 8.8807 78.6118 6.52863Z" fill="#1B2735"/>
<path d="M88.4502 1.98584H90.3409L92.4376 5.3477L94.5318 1.98584H96.4249V9.93694H94.6814V4.74623L92.4376 8.14232H92.391L90.1692 4.78046V9.93694H88.4502V1.98584Z" fill="#1B2735"/>
<path d="M41.4042 6.00049C41.4042 8.30367 43.2875 10.1692 45.6147 10.1692C46.2375 10.1692 46.8285 10.0298 47.3607 9.79022V11.7462C46.8089 11.91 46.2228 12.0005 45.6147 12.0005C42.2698 12.0005 39.5576 9.31589 39.5576 6.00049C39.5576 2.68509 42.2698 0.000488281 45.6171 0.000488281C46.2253 0.000488281 46.8089 0.0909528 47.3631 0.254767V2.21076C46.831 1.9687 46.24 1.83178 45.6171 1.83178C43.2924 1.83178 41.4066 3.69731 41.4066 6.00049H41.4042ZM45.6147 8.54083C44.1973 8.54083 43.0472 7.40391 43.0472 5.99804C43.0472 4.59218 44.1973 3.45526 45.6147 3.45526C47.0321 3.45526 48.1822 4.59462 48.1822 5.99804C48.1822 7.40147 47.0321 8.54083 45.6147 8.54083ZM51.1052 8.54083H48.9473C49.4941 7.83667 49.8252 6.95892 49.8252 6.00049C49.8252 5.04205 49.4941 4.16186 48.9448 3.4577H51.1028C51.4682 4.23032 51.6742 5.09095 51.6742 6.00049C51.6742 6.91002 51.4682 7.77066 51.1028 8.54083" fill="#1B2735"/>
<path d="M13.5274 8.54785C12.1002 8.54785 10.9427 7.39626 10.9427 5.97083C10.9427 4.5454 12.1002 3.39626 13.5274 3.39626C14.9546 3.39626 16.1121 4.54785 16.1121 5.97083C16.1121 7.39381 14.9546 8.54785 13.5274 8.54785ZM13.5274 1.88281C11.2615 1.88281 9.4248 3.71411 9.4248 5.97328C9.4248 8.23244 11.2615 10.0637 13.5274 10.0637C15.7933 10.0637 17.63 8.23244 17.63 5.97328C17.63 3.71411 15.7933 1.88281 13.5274 1.88281Z" fill="#1B2735"/>
<path d="M13.527 3.42075C12.1145 3.42075 10.9669 4.565 10.9669 5.97087C10.9669 7.37674 12.1145 8.52344 13.527 8.52344C14.9395 8.52344 16.0872 7.37918 16.0872 5.97087C16.0872 4.56256 14.9395 3.42075 13.527 3.42075ZM13.527 8.57234C12.0876 8.57234 10.9178 7.40608 10.9178 5.97087C10.9178 4.53566 12.0876 3.37185 13.527 3.37185C14.9665 3.37185 16.1362 4.53811 16.1362 5.97087C16.1362 7.40363 14.9665 8.57234 13.527 8.57234ZM13.527 1.9073C11.2783 1.9073 9.44895 3.73126 9.44895 5.97332C9.44895 8.21537 11.2783 10.0393 13.527 10.0393C15.7757 10.0393 17.6051 8.21537 17.6051 5.97332C17.6051 3.73126 15.7757 1.9073 13.527 1.9073ZM13.527 10.0858C11.2513 10.0858 9.3999 8.23982 9.3999 5.97087C9.3999 3.70192 11.2513 1.85596 13.527 1.85596C15.8027 1.85596 17.6542 3.70192 17.6542 5.97087C17.6542 8.23982 15.8027 10.0858 13.527 10.0858Z" fill="#1B2735"/>
<path d="M105.871 12L104.695 12L104.695 5.1375e-08L105.871 0L105.871 12Z" fill="#1B2735"/>
<path d="M117.025 9.95536V1.78296H119.702C120.55 1.78296 121.285 1.95482 121.907 2.29853C122.536 2.63494 123.022 3.11029 123.366 3.72459C123.71 4.33889 123.881 5.05192 123.881 5.86368C123.881 6.66812 123.71 7.38115 123.366 8.00276C123.022 8.61706 122.536 9.09607 121.907 9.43979C121.285 9.7835 120.55 9.95536 119.702 9.95536H117.025ZM118.32 8.80355H119.724C120.302 8.80355 120.803 8.68288 121.227 8.44155C121.658 8.20021 121.991 7.86015 122.225 7.42137C122.459 6.98258 122.576 6.46335 122.576 5.86368C122.576 5.264 122.455 4.74843 122.214 4.31695C121.98 3.87817 121.651 3.53811 121.227 3.29677C120.803 3.05544 120.302 2.93477 119.724 2.93477H118.32V8.80355Z" fill="#1B2735"/>
<path d="M114.037 9.95536V1.78296H115.331V9.95536H114.037Z" fill="#1B2735"/>
</svg>
