<svg width="16" height="16" viewBox="0 0 16 16" fill="none" xmlns="http://www.w3.org/2000/svg">
<path fill-rule="evenodd" clip-rule="evenodd" d="M3.33333 2.66671C2.96514 2.66671 2.66667 2.96518 2.66667 3.33337V8.66671C2.66667 9.0349 2.36819 9.33337 2 9.33337C1.63181 9.33337 1.33333 9.0349 1.33333 8.66671V3.33337C1.33333 2.2288 2.22876 1.33337 3.33333 1.33337H12.6667C13.7713 1.33337 14.6667 2.22881 14.6667 3.33337V8.66671C14.6667 9.0349 14.3682 9.33337 14 9.33337C13.6318 9.33337 13.3333 9.0349 13.3333 8.66671V3.33337C13.3333 2.96518 13.0349 2.66671 12.6667 2.66671H3.33333ZM0 11.3334C0 10.9652 0.298477 10.6667 0.666667 10.6667H5.33333C5.70152 10.6667 6 10.9652 6 11.3334H10C10 10.9652 10.2985 10.6667 10.6667 10.6667H15.3333C15.7015 10.6667 16 10.9652 16 11.3334V12.6667C16 13.7713 15.1046 14.6667 14 14.6667H2C0.895437 14.6667 0 13.7713 0 12.6667V11.3334ZM1.33333 12V12.6667C1.33333 13.0349 1.6318 13.3334 2 13.3334H14C14.3682 13.3334 14.6667 13.0349 14.6667 12.6667V12H11.155C10.9244 12.3986 10.4935 12.6667 10 12.6667H6C5.50648 12.6667 5.07558 12.3986 4.84504 12H1.33333Z" fill="black" fill-opacity="0.6"/>
</svg>
