<svg width="16" height="16" viewBox="0 0 16 16" fill="none" xmlns="http://www.w3.org/2000/svg">
<path fill-rule="evenodd" clip-rule="evenodd" d="M3.33333 2.66668C2.96514 2.66668 2.66667 2.96515 2.66667 3.33334V8.66668C2.66667 9.03487 2.36819 9.33334 2 9.33334C1.63181 9.33334 1.33333 9.03487 1.33333 8.66668V3.33334C1.33333 2.22877 2.22876 1.33334 3.33333 1.33334H12.6667C13.7713 1.33334 14.6667 2.22878 14.6667 3.33334V8.66668C14.6667 9.03487 14.3682 9.33334 14 9.33334C13.6318 9.33334 13.3333 9.03487 13.3333 8.66668V3.33334C13.3333 2.96515 13.0349 2.66668 12.6667 2.66668H3.33333ZM0 11.3333C0 10.9652 0.298477 10.6667 0.666667 10.6667H5.33333C5.70152 10.6667 6 10.9652 6 11.3333H10C10 10.9652 10.2985 10.6667 10.6667 10.6667H15.3333C15.7015 10.6667 16 10.9652 16 11.3333V12.6667C16 13.7713 15.1046 14.6667 14 14.6667H2C0.895437 14.6667 0 13.7713 0 12.6667V11.3333ZM1.33333 12V12.6667C1.33333 13.0349 1.6318 13.3333 2 13.3333H14C14.3682 13.3333 14.6667 13.0349 14.6667 12.6667V12H11.155C10.9244 12.3985 10.4935 12.6667 10 12.6667H6C5.50648 12.6667 5.07558 12.3985 4.84504 12H1.33333Z" fill="#2667FF"/>
</svg>
