<svg width="55" height="86" viewBox="0 0 55 86" fill="none" xmlns="http://www.w3.org/2000/svg">
<rect y="33.5706" width="54.302" height="52.4295" rx="8" fill="#2667FF"/>
<mask id="path-2-inside-1_2207_3068" fill="white">
<path d="M27.333 0C39.6671 4.53556e-05 49.666 9.9989 49.666 22.333V67.002H5V22.333C5 9.99887 14.9989 0 27.333 0Z"/>
</mask>
<path d="M27.333 0L27.333 -8H27.333V0ZM49.666 67.002V75.002H57.666V67.002H49.666ZM5 67.002H-3V75.002H5V67.002ZM27.333 0L27.333 8C35.2488 8.00003 41.666 14.4172 41.666 22.333H49.666H57.666C57.666 5.5806 44.0854 -7.99994 27.333 -8L27.333 0ZM49.666 22.333H41.666V67.002H49.666H57.666V22.333H49.666ZM49.666 67.002V59.002H5V67.002V75.002H49.666V67.002ZM5 67.002H13V22.333H5H-3V67.002H5ZM5 22.333H13C13 14.4172 19.4172 8 27.333 8V0V-8C10.5806 -8 -3 5.5806 -3 22.333H5Z" fill="#2667FF" mask="url(#path-2-inside-1_2207_3068)"/>
<g filter="url(#filter0_i_2207_3068)">
<path d="M26.0879 48.6484C26.9448 48.4906 27.8263 48.524 28.6689 48.7451C29.5115 48.9663 30.2946 49.37 30.9619 49.9277C31.6243 50.4806 32.1565 51.1721 32.5215 51.9521C32.8864 52.7321 33.0752 53.582 33.0742 54.4424C33.0806 55.2731 32.9103 56.0961 32.5742 56.8564C32.2382 57.6168 31.7445 58.298 31.125 58.8545L33.0449 67.3535C33.0938 67.5705 33.0932 67.7962 33.042 68.0127C32.9908 68.229 32.8908 68.4311 32.75 68.6035C32.611 68.7741 32.4347 68.9117 32.2354 69.0059C32.0361 69.0999 31.8182 69.1482 31.5977 69.1475H22.7344C22.5088 69.1526 22.2848 69.106 22.0801 69.0117C21.8754 68.9174 21.6948 68.7779 21.5527 68.6035C21.4119 68.4311 21.3119 68.229 21.2607 68.0127C21.2096 67.7962 21.2089 67.5705 21.2578 67.3535L23.207 58.8545C22.4434 58.1719 21.8716 57.3025 21.5479 56.333C21.2242 55.3636 21.1603 54.327 21.3613 53.3252C21.5851 52.1629 22.1558 51.095 22.999 50.2607C23.8423 49.4265 24.9189 48.864 26.0879 48.6484Z" fill="#F2F2F2"/>
</g>
<defs>
<filter id="filter0_i_2207_3068" x="21.2217" y="48.5505" width="11.8594" height="24.5974" filterUnits="userSpaceOnUse" color-interpolation-filters="sRGB">
<feFlood flood-opacity="0" result="BackgroundImageFix"/>
<feBlend mode="normal" in="SourceGraphic" in2="BackgroundImageFix" result="shape"/>
<feColorMatrix in="SourceAlpha" type="matrix" values="0 0 0 0 0 0 0 0 0 0 0 0 0 0 0 0 0 0 127 0" result="hardAlpha"/>
<feOffset dy="4"/>
<feGaussianBlur stdDeviation="4"/>
<feComposite in2="hardAlpha" operator="arithmetic" k2="-1" k3="1"/>
<feColorMatrix type="matrix" values="0 0 0 0 0 0 0 0 0 0 0 0 0 0 0 0 0 0 0.2 0"/>
<feBlend mode="normal" in2="shape" result="effect1_innerShadow_2207_3068"/>
</filter>
</defs>
</svg>
