<svg width="55" height="86" viewBox="0 0 55 86" fill="none" xmlns="http://www.w3.org/2000/svg">
<rect y="33.5706" width="54.302" height="52.4295" rx="8" fill="#2667FF"/>
<mask id="path-2-inside-1_2207_2999" fill="white">
<path d="M27.333 0C39.6671 4.53556e-05 49.666 9.9989 49.666 22.333V67.002H5V22.333C5 9.99887 14.9989 0 27.333 0Z"/>
</mask>
<path d="M27.333 0L27.333 -8H27.333V0ZM49.666 67.002V75.002H57.666V67.002H49.666ZM5 67.002H-3V75.002H5V67.002ZM27.333 0L27.333 8C35.2488 8.00003 41.666 14.4172 41.666 22.333H49.666H57.666C57.666 5.5806 44.0854 -7.99994 27.333 -8L27.333 0ZM49.666 22.333H41.666V67.002H49.666H57.666V22.333H49.666ZM49.666 67.002V59.002H5V67.002V75.002H49.666V67.002ZM5 67.002H13V22.333H5H-3V67.002H5ZM5 22.333H13C13 14.4172 19.4172 8 27.333 8V0V-8C10.5806 -8 -3 5.5806 -3 22.333H5Z" fill="#2667FF" mask="url(#path-2-inside-1_2207_2999)"/>
<path d="M13 61.436L21.0784 69L40 51" stroke="white" stroke-width="6" stroke-linecap="round" stroke-linejoin="round"/>
</svg>
