<svg width="11" height="16" viewBox="0 0 11 16" fill="none" xmlns="http://www.w3.org/2000/svg">
<path d="M4.66667 2H6C6.3904 2 6.70687 2.31648 6.70687 2.70687C6.70687 3.09727 6.3904 3.41375 6 3.41375H4.66667C4.27628 3.41375 3.9598 3.09727 3.9598 2.70688C3.9598 2.31648 4.27627 2 4.66667 2Z" fill="black" fill-opacity="0.6"/>
<path d="M4 12.6667C3.63181 12.6667 3.33333 12.9651 3.33333 13.3333C3.33333 13.7015 3.63181 14 4 14H6.66667C7.03486 14 7.33333 13.7015 7.33333 13.3333C7.33333 12.9651 7.03486 12.6667 6.66667 12.6667H4Z" fill="black" fill-opacity="0.6"/>
<path fill-rule="evenodd" clip-rule="evenodd" d="M8.66667 16H2C0.895427 16 0 15.1046 0 14V2C0 0.895433 0.895427 0 2 0H8.66667C9.77127 0 10.6667 0.895433 10.6667 2V14C10.6667 15.1046 9.77127 16 8.66667 16ZM2 14.6667H8.66667C9.03487 14.6667 9.33333 14.3682 9.33333 14V2C9.33333 1.63181 9.03487 1.33333 8.66667 1.33333H2C1.63181 1.33333 1.33333 1.63181 1.33333 2V14C1.33333 14.3682 1.63181 14.6667 2 14.6667Z" fill="black" fill-opacity="0.6"/>
</svg>
