<svg width="16" height="16" viewBox="0 0 16 16" fill="none" xmlns="http://www.w3.org/2000/svg">
<path d="M7.33333 2H8.66667C9.05707 2 9.37353 2.31648 9.37353 2.70687C9.37353 3.09727 9.05707 3.41375 8.66667 3.41375H7.33333C6.94295 3.41375 6.62647 3.09727 6.62647 2.70688C6.62647 2.31648 6.94294 2 7.33333 2Z" fill="#2667FF"/>
<path d="M6.66667 12.6667C6.29848 12.6667 6 12.9651 6 13.3333C6 13.7015 6.29848 14 6.66667 14H9.33333C9.70152 14 10 13.7015 10 13.3333C10 12.9651 9.70152 12.6667 9.33333 12.6667H6.66667Z" fill="#2667FF"/>
<path fill-rule="evenodd" clip-rule="evenodd" d="M11.3333 16H4.66667C3.56209 16 2.66667 15.1046 2.66667 14V2C2.66667 0.895433 3.56209 0 4.66667 0H11.3333C12.4379 0 13.3333 0.895433 13.3333 2V14C13.3333 15.1046 12.4379 16 11.3333 16ZM4.66667 14.6667H11.3333C11.7015 14.6667 12 14.3682 12 14V2C12 1.63181 11.7015 1.33333 11.3333 1.33333H4.66667C4.29847 1.33333 4 1.63181 4 2V14C4 14.3682 4.29847 14.6667 4.66667 14.6667Z" fill="#2667FF"/>
</svg>
