<svg width="80" height="80" viewBox="0 0 80 80" fill="none" xmlns="http://www.w3.org/2000/svg">
<path d="M0 40C0 17.9086 17.9086 0 40 0C62.0914 0 80 17.9086 80 40C80 62.0914 62.0914 80 40 80C17.9086 80 0 62.0914 0 40Z" fill="#E2EDFF"/>
<path d="M32.8333 41.6667C35.822 41.6667 38.4072 43.4728 39.3926 46.0775L39.4528 46.2712C39.565 46.7304 39.4761 47.2197 39.2038 47.6139C38.8926 48.0642 38.3807 48.3333 37.8333 48.3333H27.8333C27.286 48.3333 26.7741 48.0642 26.4629 47.6139C26.1518 47.1637 26.0807 46.5894 26.2741 46.0775L26.4775 45.599C27.5842 43.254 30.0312 41.6667 32.8333 41.6667Z" fill="#2667FF"/>
<path d="M51.1667 41.6667C52.0871 41.6667 52.8333 42.4129 52.8333 43.3333C52.8333 44.2538 52.0871 45 51.1667 45H46.1667C45.2462 45 44.5 44.2538 44.5 43.3333C44.5 42.4129 45.2462 41.6667 46.1667 41.6667H51.1667Z" fill="#2667FF"/>
<path d="M32.8333 33.3333C34.6743 33.3333 36.1667 34.8257 36.1667 36.6667C36.1667 38.5076 34.6743 40 32.8333 40C30.9924 40 29.5 38.5076 29.5 36.6667C29.5 34.8257 30.9924 33.3333 32.8333 33.3333Z" fill="#2667FF"/>
<path d="M51.1667 35C52.0871 35 52.8333 35.7462 52.8333 36.6667C52.8333 37.5871 52.0871 38.3333 51.1667 38.3333H44.5C43.5795 38.3333 42.8333 37.5871 42.8333 36.6667C42.8333 35.7462 43.5795 35 44.5 35H51.1667Z" fill="#2667FF"/>
<path fill-rule="evenodd" clip-rule="evenodd" d="M54.5 25C57.2614 25 59.5 27.2386 59.5 30V50C59.5 52.7614 57.2614 55 54.5 55H24.5C21.7386 55 19.5 52.7614 19.5 50V30C19.5 27.2386 21.7386 25 24.5 25C40.065 25 38.935 25 54.5 25ZM24.5 28.3333C23.5795 28.3333 22.8333 29.0795 22.8333 30V50C22.8333 50.9205 23.5795 51.6667 24.5 51.6667H54.5C55.4205 51.6667 56.1667 50.9205 56.1667 50V30C56.1667 29.0795 55.4205 28.3333 54.5 28.3333C42.5322 28.3333 36.4678 28.3333 24.5 28.3333Z" fill="#2667FF"/>
</svg>
