<svg width="80" height="80" viewBox="0 0 80 80" fill="none" xmlns="http://www.w3.org/2000/svg">
<path d="M0 40C0 17.9086 17.9086 0 40 0C62.0914 0 80 17.9086 80 40C80 62.0914 62.0914 80 40 80C17.9086 80 0 62.0914 0 40Z" fill="#E9495D"/>
<path d="M54.9883 22.155C55.6391 21.5041 56.6942 21.5041 57.345 22.155C57.9959 22.8058 57.9959 23.8609 57.345 24.5117L41.8568 40L57.345 55.4883C57.9959 56.1392 57.9959 57.1942 57.345 57.8451C56.6942 58.4959 55.6391 58.4959 54.9883 57.8451L39.5 42.3568L24.0117 57.8451C23.3608 58.4959 22.3058 58.4959 21.6549 57.8451C21.0041 57.1942 21.0041 56.1392 21.6549 55.4883L37.1432 40L21.6549 24.5117C21.0041 23.8609 21.0041 22.8058 21.6549 22.155C22.3058 21.5041 23.3608 21.5041 24.0117 22.155L39.5 37.6432L54.9883 22.155Z" fill="white"/>
</svg>
