<svg width="100" height="100" viewBox="0 0 100 100" fill="none" xmlns="http://www.w3.org/2000/svg">
<path d="M10 49.9995C10 27.9081 27.9086 9.99951 50 9.99951C72.0914 9.99951 90 27.9081 90 49.9995C90 72.0909 72.0914 89.9995 50 89.9995C27.9086 89.9995 10 72.0909 10 49.9995Z" fill="#24D4AB"/>
<path fill-rule="evenodd" clip-rule="evenodd" d="M69.0118 35.4877C69.6627 36.1385 69.6627 37.1938 69.0118 37.8447L40.6785 66.178C40.0276 66.8289 38.9724 66.8289 38.3215 66.178L29.9882 57.8447C29.3373 57.1938 29.3373 56.1385 29.9882 55.4877C30.639 54.8368 31.6943 54.8368 32.3452 55.4877L39.5 62.6425L66.6548 35.4877C67.3057 34.8368 68.361 34.8368 69.0118 35.4877Z" fill="white"/>
</svg>
