<svg width="72" height="40" viewBox="0 0 72 40" fill="none" xmlns="http://www.w3.org/2000/svg">
<g clip-path="url(#clip0_2680_9884)">
<path d="M0 14.6667C0 10.933 0 9.06614 0.726623 7.64006C1.36578 6.38565 2.38565 5.36578 3.64006 4.72662C5.06614 4 6.93298 4 10.6667 4H21.3333C25.067 4 26.9339 4 28.3599 4.72662C29.6144 5.36578 30.6342 6.38565 31.2734 7.64006C32 9.06614 32 10.933 32 14.6667V25.3333C32 29.067 32 30.9339 31.2734 32.3599C30.6342 33.6144 29.6144 34.6342 28.3599 35.2734C26.9339 36 25.067 36 21.3333 36H10.6667C6.93298 36 5.06614 36 3.64006 35.2734C2.38565 34.6342 1.36578 33.6144 0.726623 32.3599C0 30.9339 0 29.067 0 25.3333V14.6667Z" fill="#F2F2F2"/>
<path d="M10.667 4.625H21.333C23.2102 4.625 24.5808 4.6256 25.6611 4.71387C26.7341 4.80153 27.466 4.97232 28.0762 5.2832C29.213 5.86244 30.1376 6.78702 30.7168 7.92383C31.0277 8.53404 31.1985 9.26594 31.2861 10.3389C31.3744 11.4192 31.375 12.7898 31.375 14.667V25.333C31.375 27.2102 31.3744 28.5808 31.2861 29.6611C31.1985 30.7341 31.0277 31.466 30.7168 32.0762C30.1376 33.213 29.213 34.1376 28.0762 34.7168C27.466 35.0277 26.7341 35.1985 25.6611 35.2861C24.5808 35.3744 23.2102 35.375 21.333 35.375H10.667C8.78984 35.375 7.41919 35.3744 6.33887 35.2861C5.26595 35.1985 4.53404 35.0277 3.92383 34.7168C2.78702 34.1376 1.86244 33.213 1.2832 32.0762C0.972316 31.466 0.801532 30.7341 0.713867 29.6611C0.625601 28.5808 0.625 27.2102 0.625 25.333V14.667C0.625 12.7898 0.625601 11.4192 0.713867 10.3389C0.801532 9.26594 0.972316 8.53404 1.2832 7.92383C1.86244 6.78702 2.78702 5.86244 3.92383 5.2832C4.53404 4.97232 5.26594 4.80153 6.33887 4.71387C7.41919 4.6256 8.78984 4.625 10.667 4.625Z" stroke="black" stroke-opacity="0.05" stroke-width="1.25"/>
<path d="M9.32605 20C9.32605 23.6496 12.3104 26.6057 15.9981 26.6057C16.9851 26.6057 17.9216 26.3849 18.7648 26.0052V29.1047C17.8905 29.3643 16.9617 29.5076 15.9981 29.5076C10.6978 29.5076 6.4 25.2536 6.4 20C6.4 14.7463 10.6978 10.4923 16.0019 10.4923C16.9656 10.4923 17.8905 10.6357 18.7687 10.8952V13.9947C17.9254 13.6112 16.989 13.3942 16.0019 13.3942C12.3182 13.3942 9.32994 16.3503 9.32994 20H9.32605ZM15.9981 24.0254C13.752 24.0254 11.9296 22.2238 11.9296 19.9961C11.9296 17.7683 13.752 15.9668 15.9981 15.9668C18.2441 15.9668 20.0665 17.7722 20.0665 19.9961C20.0665 22.22 18.2441 24.0254 15.9981 24.0254ZM24.6985 24.0254H21.2789C22.1455 22.9096 22.6701 21.5187 22.6701 20C22.6701 18.4812 22.1455 17.0865 21.275 15.9706H24.6946C25.2736 17.1949 25.6 18.5587 25.6 20C25.6 21.4412 25.2736 22.805 24.6946 24.0254" fill="#1B2735"/>
</g>
<rect x="0.454545" y="4.45455" width="31.0909" height="31.0909" rx="7.72727" stroke="black" stroke-opacity="0.1" stroke-width="0.909091"/>
<g clip-path="url(#clip1_2680_9884)">
<path d="M14 9.5C14 5.35786 17.3579 2 21.5 2H42.5C46.6421 2 50 5.35786 50 9.5V30.5C50 34.6421 46.6421 38 42.5 38H21.5C17.3579 38 14 34.6421 14 30.5V9.5Z" fill="#2667FF"/>
<path d="M21.5 2.5625H42.5C46.3315 2.5625 49.4375 5.66852 49.4375 9.5V30.5C49.4375 34.3315 46.3315 37.4375 42.5 37.4375H21.5C17.6685 37.4375 14.5625 34.3315 14.5625 30.5V9.5C14.5625 5.66853 17.6685 2.5625 21.5 2.5625Z" stroke="white" stroke-opacity="0.1" stroke-width="1.125"/>
<mask id="path-10-inside-1_2680_9884" fill="white">
<path d="M27.1752 20.1119C27.1752 22.6654 29.2632 24.7337 31.8434 24.7337C32.5339 24.7337 33.1892 24.5792 33.7792 24.3135V26.4821C33.1674 26.6637 32.5176 26.764 31.8434 26.764C28.1349 26.764 25.128 23.7876 25.128 20.1119C25.128 16.4361 28.1349 13.4597 31.8461 13.4597C32.5204 13.4597 33.1674 13.56 33.7819 13.7416V15.9102C33.1919 15.6419 32.5367 15.4901 31.8461 15.4901C29.2687 15.4901 27.1779 17.5584 27.1779 20.1119H27.1752ZM31.8434 22.9283C30.2719 22.9283 28.9968 21.6678 28.9968 20.1092C28.9968 18.5505 30.2719 17.29 31.8434 17.29C33.4148 17.29 34.6899 18.5532 34.6899 20.1092C34.6899 21.6651 33.4148 22.9283 31.8434 22.9283ZM37.9307 22.9283H35.5382C36.1445 22.1476 36.5115 21.1745 36.5115 20.1119C36.5115 19.0493 36.1445 18.0734 35.5355 17.2927H37.928C38.3331 18.1493 38.5615 19.1035 38.5615 20.1119C38.5615 21.1203 38.3331 22.0745 37.928 22.9283"/>
</mask>
<path d="M27.1752 20.1119C27.1752 22.6654 29.2632 24.7337 31.8434 24.7337C32.5339 24.7337 33.1892 24.5792 33.7792 24.3135V26.4821C33.1674 26.6637 32.5176 26.764 31.8434 26.764C28.1349 26.764 25.128 23.7876 25.128 20.1119C25.128 16.4361 28.1349 13.4597 31.8461 13.4597C32.5204 13.4597 33.1674 13.56 33.7819 13.7416V15.9102C33.1919 15.6419 32.5367 15.4901 31.8461 15.4901C29.2687 15.4901 27.1779 17.5584 27.1779 20.1119H27.1752ZM31.8434 22.9283C30.2719 22.9283 28.9968 21.6678 28.9968 20.1092C28.9968 18.5505 30.2719 17.29 31.8434 17.29C33.4148 17.29 34.6899 18.5532 34.6899 20.1092C34.6899 21.6651 33.4148 22.9283 31.8434 22.9283ZM37.9307 22.9283H35.5382C36.1445 22.1476 36.5115 21.1745 36.5115 20.1119C36.5115 19.0493 36.1445 18.0734 35.5355 17.2927H37.928C38.3331 18.1493 38.5615 19.1035 38.5615 20.1119C38.5615 21.1203 38.3331 22.0745 37.928 22.9283" fill="white"/>
<path d="M27.1752 20.1119V20.0229H27.0862V20.1119H27.1752ZM33.7792 24.3135H33.8682V24.1758L33.7426 24.2324L33.7792 24.3135ZM33.7792 26.4821L33.8045 26.5675L33.8682 26.5486V26.4821H33.7792ZM33.7819 13.7416H33.8709V13.6751L33.8071 13.6563L33.7819 13.7416ZM33.7819 15.9102L33.745 15.9913L33.8709 16.0485V15.9102H33.7819ZM27.1779 20.1119V20.2009H27.2669V20.1119H27.1779ZM35.5382 22.9283L35.4679 22.8737L35.3564 23.0174H35.5382V22.9283ZM35.5355 17.2927V17.2037H35.3531L35.4653 17.3475L35.5355 17.2927ZM37.928 17.2927L38.0085 17.2546L37.9844 17.2037H37.928V17.2927ZM27.1752 20.1119H27.0862C27.0862 22.7154 29.2149 24.8227 31.8434 24.8227V24.7337V24.6447C29.3116 24.6447 27.2642 22.6154 27.2642 20.1119H27.1752ZM31.8434 24.7337V24.8227C32.5473 24.8227 33.215 24.6652 33.8157 24.3947L33.7792 24.3135L33.7426 24.2324C33.1634 24.4932 32.5205 24.6447 31.8434 24.6447V24.7337ZM33.7792 24.3135H33.6901V26.4821H33.7792H33.8682V24.3135H33.7792ZM33.7792 26.4821L33.7538 26.3968C33.15 26.5761 32.5088 26.675 31.8434 26.675V26.764V26.8531C32.5265 26.8531 33.1848 26.7514 33.8045 26.5675L33.7792 26.4821ZM31.8434 26.764V26.675C28.1833 26.675 25.217 23.7377 25.217 20.1119H25.128H25.0389C25.0389 23.8376 28.0866 26.8531 31.8434 26.8531V26.764ZM25.128 20.1119H25.217C25.217 16.4861 28.1833 13.5487 31.8461 13.5487V13.4597V13.3707C28.0866 13.3707 25.0389 16.3861 25.0389 20.1119H25.128ZM31.8461 13.4597V13.5487C32.5114 13.5487 33.15 13.6477 33.7566 13.827L33.7819 13.7416L33.8071 13.6563C33.1848 13.4723 32.5293 13.3707 31.8461 13.3707V13.4597ZM33.7819 13.7416H33.6929V15.9102H33.7819H33.8709V13.7416H33.7819ZM33.7819 15.9102L33.8187 15.8292C33.2176 15.5558 32.5498 15.401 31.8461 15.401V15.4901V15.5791C32.5235 15.5791 33.1662 15.728 33.745 15.9913L33.7819 15.9102ZM31.8461 15.4901V15.401C29.2204 15.401 27.0889 17.5083 27.0889 20.1119H27.1779H27.2669C27.2669 17.6084 29.317 15.5791 31.8461 15.5791V15.4901ZM27.1779 20.1119V20.0229H27.1752V20.1119V20.2009H27.1779V20.1119ZM31.8434 22.9283V22.8393C30.3202 22.8393 29.0858 21.6178 29.0858 20.1092H28.9968H28.9078C28.9078 21.7179 30.2236 23.0174 31.8434 23.0174V22.9283ZM28.9968 20.1092H29.0858C29.0858 18.6005 30.3202 17.379 31.8434 17.379V17.29V17.201C30.2236 17.201 28.9078 18.5005 28.9078 20.1092H28.9968ZM31.8434 17.29V17.379C33.3665 17.379 34.6009 18.6032 34.6009 20.1092H34.6899H34.779C34.779 18.5032 33.4632 17.201 31.8434 17.201V17.29ZM34.6899 20.1092H34.6009C34.6009 21.6152 33.3665 22.8393 31.8434 22.8393V22.9283V23.0174C33.4632 23.0174 34.779 21.7151 34.779 20.1092H34.6899ZM37.9307 22.9283V22.8393H35.5382V22.9283V23.0174H37.9307V22.9283ZM35.5382 22.9283L35.6085 22.9829C36.2262 22.1876 36.6006 21.1955 36.6006 20.1119H36.5115H36.4225C36.4225 21.1535 36.0628 22.1077 35.4679 22.8737L35.5382 22.9283ZM36.5115 20.1119H36.6006C36.6006 19.0283 36.2262 18.0334 35.6057 17.238L35.5355 17.2927L35.4653 17.3475C36.0628 18.1134 36.4225 19.0702 36.4225 20.1119H36.5115ZM35.5355 17.2927V17.3817H37.928V17.2927V17.2037H35.5355V17.2927ZM37.928 17.2927L37.8476 17.3308C38.2472 18.1759 38.4725 19.1171 38.4725 20.1119H38.5615H38.6505C38.6505 19.0899 38.419 18.1227 38.0085 17.2546L37.928 17.2927ZM38.5615 20.1119H38.4725C38.4725 21.1067 38.2472 22.0479 37.8476 22.8902L37.928 22.9283L38.0085 22.9665C38.419 22.101 38.6505 21.1339 38.6505 20.1119H38.5615Z" fill="white" mask="url(#path-10-inside-1_2680_9884)"/>
<rect x="17.8705" y="5.8705" width="28.2591" height="28.2591" rx="3.24582" stroke="white" stroke-width="1.04325" stroke-dasharray="6.48 10.43"/>
</g>
<rect x="14.4091" y="2.40909" width="35.1818" height="35.1818" rx="6.95455" stroke="black" stroke-opacity="0.1" stroke-width="0.818182"/>
<g clip-path="url(#clip2_2680_9884)">
<path d="M32 13.3333C32 8.66623 32 6.33268 32.9083 4.55008C33.7072 2.98206 34.9821 1.70722 36.5501 0.908279C38.3327 0 40.6662 0 45.3333 0H58.6667C63.3338 0 65.6673 0 67.4499 0.908279C69.0179 1.70722 70.2928 2.98206 71.0917 4.55008C72 6.33268 72 8.66623 72 13.3333V26.6667C72 31.3338 72 33.6673 71.0917 35.4499C70.2928 37.0179 69.0179 38.2928 67.4499 39.0917C65.6673 40 63.3338 40 58.6667 40H45.3333C40.6662 40 38.3327 40 36.5501 39.0917C34.9821 38.2928 33.7072 37.0179 32.9083 35.4499C32 33.6673 32 31.3338 32 26.6667V13.3333Z" fill="#1B2735"/>
<path d="M45.333 0.625H58.667C61.0106 0.625 62.7307 0.625379 64.0889 0.736328C65.4397 0.846693 66.3776 1.06316 67.166 1.46484C68.6164 2.20387 69.7961 3.38357 70.5352 4.83398C70.9368 5.62244 71.1533 6.56033 71.2637 7.91113C71.3746 9.26928 71.375 10.9894 71.375 13.333V26.667C71.375 29.0106 71.3746 30.7307 71.2637 32.0889C71.1533 33.4397 70.9368 34.3776 70.5352 35.166C69.7961 36.6164 68.6164 37.7961 67.166 38.5352C66.3776 38.9368 65.4397 39.1533 64.0889 39.2637C62.7307 39.3746 61.0106 39.375 58.667 39.375H45.333C42.9894 39.375 41.2693 39.3746 39.9111 39.2637C38.5603 39.1533 37.6224 38.9368 36.834 38.5352C35.3836 37.7961 34.2039 36.6164 33.4648 35.166C33.0632 34.3776 32.8467 33.4397 32.7363 32.0889C32.6254 30.7307 32.625 29.0106 32.625 26.667V13.333C32.625 10.9894 32.6254 9.26928 32.7363 7.91113C32.8467 6.56033 33.0632 5.62244 33.4648 4.83398C34.2039 3.38357 35.3836 2.20387 36.834 1.46484C37.6224 1.06316 38.5603 0.846693 39.9111 0.736328C41.2693 0.625379 42.9894 0.625 45.333 0.625Z" stroke="white" stroke-opacity="0.1" stroke-width="1.25"/>
<path d="M43.6576 20C43.6576 24.5621 47.388 28.2573 51.9976 28.2573C53.2313 28.2573 54.4019 27.9812 55.456 27.5066V31.3809C54.3631 31.7054 53.2022 31.8846 51.9976 31.8846C45.3722 31.8846 40 26.5671 40 20C40 13.433 45.3722 8.11548 52.0024 8.11548C53.207 8.11548 54.3631 8.29467 55.4608 8.61914V12.4935C54.4068 12.014 53.2362 11.7428 52.0024 11.7428C47.3977 11.7428 43.6624 15.438 43.6624 20H43.6576ZM51.9976 25.0319C49.19 25.0319 46.912 22.7799 46.912 19.9952C46.912 17.2105 49.19 14.9585 51.9976 14.9585C54.8051 14.9585 57.0832 17.2154 57.0832 19.9952C57.0832 22.775 54.8051 25.0319 51.9976 25.0319ZM62.8731 25.0319H58.5987C59.6818 23.6371 60.3376 21.8985 60.3376 20C60.3376 18.1016 59.6818 16.3582 58.5938 14.9634H62.8682C63.592 16.4938 64 18.1985 64 20C64 21.8016 63.592 23.5063 62.8682 25.0319" fill="white"/>
</g>
<rect x="32.4545" y="0.454545" width="39.0909" height="39.0909" rx="7.72727" stroke="black" stroke-opacity="0.1" stroke-width="0.909091"/>
<defs>
<clipPath id="clip0_2680_9884">
<rect y="4" width="32" height="32" rx="8.18182" fill="white"/>
</clipPath>
<clipPath id="clip1_2680_9884">
<rect x="14" y="2" width="36" height="36" rx="7.36364" fill="white"/>
</clipPath>
<clipPath id="clip2_2680_9884">
<rect x="32" width="40" height="40" rx="8.18182" fill="white"/>
</clipPath>
</defs>
</svg>
